# Blender v3.2.0 OBJ File: ''
# www.blender.org
mtllib banner_2side.mtl
o pCube1_Mesh.006
v -0.408900 0.019710 0.699420
v -0.563085 0.317925 0.619515
v -0.563085 0.019710 0.699420
v 0.408900 0.019710 0.699420
v 0.563085 0.317925 0.619515
v 0.308940 0.317925 0.619515
v -0.308940 0.317925 0.619515
v -0.563085 2.527650 0.027420
v -0.308940 2.527650 0.027420
v 0.308940 2.527650 0.027420
v -0.308940 2.515470 -0.018030
v -0.563085 2.512095 -0.030630
v -0.563085 2.515470 -0.018030
v 0.308940 2.515470 -0.018030
v -0.308940 2.512095 -0.030630
v 0.563085 2.515470 -0.018030
v 0.308940 2.512095 -0.030630
v -0.563085 0.302370 0.561450
v -0.308940 0.302370 0.561450
v 0.563085 2.512095 -0.030630
v 0.308940 0.302370 0.561450
v -0.408900 0.004155 0.641370
v -0.563085 0.004155 0.641370
v 0.563085 0.302370 0.561450
v 0.408900 0.004155 0.641370
v -0.563085 0.007545 0.653970
v 0.563085 0.004155 0.641370
v 0.408900 0.007545 0.653970
v 0.563085 0.007545 0.653970
v 0.563085 0.305760 0.574065
v -0.563085 0.305760 0.574065
v -0.308940 0.305760 0.574065
v 0.308940 0.305760 0.574065
v -0.408900 0.007545 0.653970
v -0.563085 0.315075 0.608850
v -0.563085 2.524800 0.016755
v -0.308940 2.524800 0.016755
v 0.308940 2.524800 0.016755
v 0.563085 2.524800 0.016755
v 0.563085 0.315075 0.608850
v 0.563085 0.016860 0.688755
v 0.408900 0.016860 0.688755
v 0.308940 0.315075 0.608850
v -0.308940 0.315075 0.608850
v -0.408900 0.016860 0.688755
v -0.563085 0.016860 0.688755
v 0.563085 2.527650 0.027420
v 0.563085 0.019710 0.699420
v 0.408900 0.019710 -0.699420
v 0.563085 0.317925 -0.619515
v 0.563085 0.019710 -0.699420
v -0.408900 0.019710 -0.699420
v -0.563085 0.317925 -0.619515
v -0.308940 0.317925 -0.619515
v 0.308940 0.317925 -0.619515
v 0.563085 2.527650 -0.027420
v 0.308940 2.527650 -0.027420
v -0.308940 2.527650 -0.027420
v 0.308940 2.515470 0.018030
v 0.563085 2.512095 0.030630
v 0.563085 2.515470 0.018030
v -0.308940 2.515470 0.018030
v 0.308940 2.512095 0.030630
v -0.563085 2.515470 0.018030
v -0.308940 2.512095 0.030630
v 0.563085 0.302370 -0.561450
v 0.308940 0.302370 -0.561450
v -0.563085 2.512095 0.030630
v -0.308940 0.302370 -0.561450
v 0.408900 0.004155 -0.641370
v 0.563085 0.004155 -0.641370
v -0.563085 0.302370 -0.561450
v -0.408900 0.004155 -0.641370
v 0.563085 0.007545 -0.653970
v -0.563085 0.004155 -0.641370
v -0.408900 0.007545 -0.653970
v -0.563085 0.007545 -0.653970
v -0.563085 0.305760 -0.574065
v 0.563085 0.305760 -0.574065
v 0.308940 0.305760 -0.574065
v -0.308940 0.305760 -0.574065
v 0.408900 0.007545 -0.653970
v 0.563085 0.315075 -0.608850
v 0.563085 2.524800 -0.016755
v 0.308940 2.524800 -0.016755
v -0.308940 2.524800 -0.016755
v -0.563085 2.524800 -0.016755
v -0.563085 0.315075 -0.608850
v -0.563085 0.016860 -0.688755
v -0.408900 0.016860 -0.688755
v -0.308940 0.315075 -0.608850
v 0.308940 0.315075 -0.608850
v 0.408900 0.016860 -0.688755
v 0.563085 0.016860 -0.688755
v -0.563085 2.527650 -0.027420
v -0.563085 0.019710 -0.699420
v 0.513645 0.366840 0.618900
v -0.513645 2.479455 0.052830
v -0.513645 0.366840 0.618900
v 0.513645 2.479455 0.052830
v -0.513645 2.474955 0.035985
v 0.513645 2.474955 0.035985
v -0.513645 0.362340 0.602055
v 0.513645 0.362340 0.602055
v -0.513645 0.366840 -0.618900
v 0.513645 2.479455 -0.052830
v 0.513645 0.366840 -0.618900
v -0.513645 2.479455 -0.052830
v 0.513645 2.474955 -0.035985
v -0.513645 2.474955 -0.035985
v 0.513645 0.362340 -0.602055
v -0.513645 0.362340 -0.602055
vt 0.458333 -0.425781
vt 0.375000 -0.300781
vt 0.375000 -0.425781
vt 0.541667 -0.425781
vt 0.625000 -0.300781
vt 0.541667 -0.300781
vt 0.458333 -0.300781
vt 0.375000 -0.175781
vt 0.458333 -0.175781
vt 0.541667 -0.175781
vt 0.458333 0.445687
vt 0.375000 0.500000
vt 0.375000 0.445687
vt 0.541667 0.445687
vt 0.458333 0.500000
vt 0.625000 0.445687
vt 0.541667 0.500000
vt 0.458333 1.562500
vt 0.375000 1.687500
vt 0.375000 1.562500
vt 1.201823 0.500000
vt 1.118489 0.625000
vt 1.118489 0.500000
vt 1.285156 0.500000
vt 1.201823 0.625000
vt -0.656250 0.625000
vt -0.572917 0.750000
vt -0.656250 0.750000
vt -0.406250 0.625000
vt -0.489583 0.750000
vt -0.489583 0.625000
vt -0.656250 0.804313
vt -0.406250 0.750000
vt -0.489583 0.804313
vt 0.820687 -0.425781
vt 0.875000 -0.300781
vt 0.820687 -0.300781
vt 0.875000 -0.175781
vt 0.820687 -0.175781
vt -0.851937 0.000000
vt -0.906250 0.125000
vt -0.906250 0.000000
vt 0.179313 1.187500
vt 0.125000 1.312500
vt 0.125000 1.187500
vt -0.482608 0.217253
vt -1.031250 0.000000
vt -1.031250 0.217253
vt -1.031250 0.782747
vt -0.882864 1.000000
vt -1.031250 1.000000
vt 0.148386 -0.425781
vt 0.000000 -0.208528
vt 0.000000 -0.425781
vt 0.179313 1.062500
vt 0.329081 1.187500
vt 0.179313 1.312500
vt 0.329081 1.312500
vt 0.458333 1.358419
vt 0.375000 1.508187
vt 0.375000 1.358419
vt 0.541667 0.295919
vt 0.458333 0.295919
vt 0.625000 0.295919
vt 1.304862 0.125000
vt 1.454630 0.250000
vt 1.304862 0.250000
vt -0.210563 0.000000
vt -0.360331 0.125000
vt -0.360331 0.000000
vt -0.406250 0.804313
vt -0.489583 0.954081
vt -0.882864 0.183676
vt -1.031250 0.183676
vt -0.482608 0.816324
vt -1.031250 0.816324
vt -1.031250 0.217253
vt -0.882864 0.816324
vt -1.031250 0.816324
vt -0.572917 0.804313
vt -0.656250 0.954081
vt 0.329081 1.062500
vt 0.375000 1.187500
vt 0.375000 1.312500
vt 0.375000 -0.129862
vt 0.541667 -0.121094
vt 0.458333 -0.075175
vt 0.458333 -0.121094
vt 0.625000 -0.175781
vt 0.541667 -0.129862
vt 1.258943 0.250000
vt 1.258943 0.125000
vt -0.406250 0.125000
vt -0.406250 0.000000
vt -0.406250 0.954081
vt -0.489583 1.000000
vt 0.148386 -0.425781
vt 0.000000 -0.242105
vt 0.000000 -0.425781
vt -0.482608 1.000000
vt -1.031250 1.000000
vt 0.000000 1.089761
vt 0.148386 1.273438
vt 0.000000 1.273438
vt 0.458333 1.227519
vt 0.375000 1.273438
vt 0.375000 1.227519
vt 0.625000 -0.425781
vt 0.625000 0.500000
vt 0.458333 1.687500
vt -0.253906 0.500000
vt -0.253906 0.625000
vt -0.337239 0.625000
vt -0.572917 0.625000
vt -0.156250 0.000000
vt -0.156250 0.125000
vt -0.482608 0.000000
vt -0.882864 0.782747
vt 0.148386 -0.208528
vt 1.258943 0.295919
vt 1.258943 0.445687
vt 1.175610 0.445687
vt 1.065450 0.125000
vt 1.215218 0.125000
vt 1.215218 0.250000
vt -0.210563 0.125000
vt -0.882864 0.217253
vt 0.458333 1.077750
vt 0.329081 -0.425781
vt 0.375000 -0.075175
vt 0.541667 1.312500
vt 0.541667 1.358419
vt 0.625000 -0.129862
vt -0.406250 1.000000
vt -0.882864 0.000000
vt -0.882864 1.000000
vt 0.458333 1.273438
vt 0.458333 -0.554688
vt 0.375000 -0.429688
vt 0.375000 -0.554688
vt 0.541667 -0.554688
vt 0.625000 -0.429688
vt 0.541667 -0.429688
vt 0.458333 -0.429688
vt 0.375000 -0.304688
vt 0.458333 -0.304688
vt 0.541667 -0.304688
vt 0.458333 0.445687
vt 0.375000 0.500000
vt 0.375000 0.445687
vt 0.541667 0.445687
vt 0.458333 0.500000
vt 0.625000 0.445687
vt 0.541667 0.500000
vt 1.118489 0.500000
vt 1.035156 0.625000
vt 1.035156 0.500000
vt 1.201823 0.500000
vt 1.118489 0.625000
vt 1.285156 0.500000
vt 1.201823 0.625000
vt -0.656250 0.625000
vt -0.572917 0.750000
vt -0.656250 0.750000
vt -0.406250 0.625000
vt -0.489583 0.750000
vt -0.489583 0.625000
vt -0.656250 0.804313
vt -0.406250 0.750000
vt -0.489583 0.804313
vt 0.820687 1.062500
vt 0.875000 1.187500
vt 0.820687 1.187500
vt 0.875000 1.312500
vt 0.820687 1.312500
vt 0.179313 -0.554688
vt 0.125000 -0.429688
vt 0.125000 -0.554688
vt 0.179313 -0.429688
vt 0.125000 -0.304688
vt -0.482608 0.217253
vt -1.031250 0.000000
vt -1.031250 0.217253
vt -1.031250 0.782747
vt -0.882864 1.000000
vt -1.031250 1.000000
vt -0.882864 0.000000
vt -1.031250 0.217253
vt -1.031250 0.000000
vt 0.329081 -0.429688
vt 0.179313 -0.304688
vt 0.329081 -0.304688
vt 0.458333 -0.258768
vt 0.375000 -0.109001
vt 0.375000 -0.258768
vt 1.242166 0.295919
vt 1.158832 0.445687
vt 1.158832 0.295919
vt 1.325499 0.295919
vt 1.242166 0.445687
vt 0.670919 1.187500
vt 0.670919 1.312500
vt 0.670919 1.062500
vt -0.406250 0.804313
vt -0.489583 0.954081
vt -0.882864 0.183676
vt -1.031250 0.183676
vt -0.482608 0.816324
vt -1.031250 0.816324
vt -0.882864 0.816324
vt -1.031250 0.816324
vt -0.572917 0.804313
vt -0.656250 0.954081
vt 0.329081 -0.554688
vt 0.625000 -0.304688
vt 0.541667 -0.258768
vt 0.670919 0.125000
vt 0.625000 0.250000
vt 0.625000 0.125000
vt 0.670919 -0.554688
vt 0.625000 -0.554688
vt 0.625000 1.118144
vt 0.541667 1.164062
vt 0.541667 1.118144
vt 0.148386 -0.554688
vt 0.000000 -0.371011
vt 0.000000 -0.554688
vt -0.482608 1.000000
vt -1.031250 1.000000
vt -0.882864 1.000000
vt -1.031250 1.000000
vt -0.572917 0.954081
vt -0.656250 1.000000
vt 0.625000 0.500000
vt 0.625000 1.562500
vt 0.625000 1.687500
vt 0.541667 1.687500
vt -0.572917 0.625000
vt -0.210563 0.000000
vt -0.156250 0.000000
vt -0.156250 0.125000
vt -0.482608 0.000000
vt -0.882864 0.782747
vt -0.882864 0.217253
vt 1.075499 0.445687
vt 1.325499 0.445687
vt -0.406250 0.954081
vt 0.625000 -0.258768
vt 0.625000 1.312500
vt 0.670919 0.000000
vt 0.625000 1.164062
vt -0.882864 0.000000
vt -0.572917 1.000000
vt 1.000000 0.000000
vt 0.000000 1.000000
vt 0.000000 0.000000
vt 1.000000 1.000000
vt 0.000000 1.000000
vt 1.000000 1.000000
vt 0.000000 0.000000
vt 1.000000 0.000000
vt 1.000000 0.000000
vt 0.000000 1.000000
vt 0.000000 0.000000
vt 1.000000 1.000000
vt 0.000000 1.000000
vt 1.000000 1.000000
vt 0.000000 0.000000
vt 1.000000 0.000000
vn 0.0000 0.2588 0.9659
vn 0.0000 0.9659 -0.2589
vn 0.0000 0.9659 -0.2588
vn 0.0000 0.9659 -0.2587
vn 0.0000 -0.2588 -0.9659
vn 0.0000 -0.2589 -0.9659
vn -0.0000 -0.9659 0.2590
vn 0.0000 -0.9658 0.2592
vn -0.0000 -0.9659 0.2589
vn 1.0000 0.0000 0.0000
vn -1.0000 0.0000 0.0000
vn 0.0000 -0.9659 0.2591
vn -0.9514 -0.2975 0.0799
vn -0.9514 -0.2975 0.0800
vn 0.9514 -0.2975 0.0799
vn 0.9514 -0.2975 0.0800
vn 0.0000 0.9660 -0.2586
vn 0.0000 -0.9660 0.2584
vn -0.9514 -0.2976 0.0796
vn 0.9514 -0.2976 0.0796
vn 0.0000 0.9661 -0.2582
vn 0.0000 -0.9660 0.2585
vn -0.9514 -0.2974 0.0798
vn -0.9514 -0.2976 0.0795
vn 0.0000 -0.9661 0.2582
vn 0.9514 -0.2974 0.0798
vn 0.9514 -0.2976 0.0795
vn 0.0000 0.9660 -0.2587
vn -0.9514 -0.2975 0.0798
vn 0.9514 -0.2975 0.0798
vn 0.0000 0.2588 -0.9659
vn 0.0000 0.9659 0.2589
vn 0.0000 0.9659 0.2588
vn 0.0000 0.9659 0.2587
vn 0.0000 -0.2588 0.9659
vn 0.0000 -0.2589 0.9659
vn 0.0000 -0.9659 -0.2590
vn 0.0000 -0.9658 -0.2592
vn 0.0000 -0.9659 -0.2589
vn 0.0000 -0.9659 -0.2591
vn 0.9514 -0.2975 -0.0799
vn 0.9514 -0.2975 -0.0800
vn -0.9514 -0.2975 -0.0799
vn -0.9514 -0.2975 -0.0800
vn 0.0000 0.9660 0.2586
vn 0.0000 -0.9660 -0.2584
vn 0.9514 -0.2976 -0.0796
vn -0.9514 -0.2976 -0.0796
vn 0.0000 0.9661 0.2582
vn -0.0000 -0.9660 -0.2585
vn 0.9514 -0.2974 -0.0798
vn 0.9514 -0.2976 -0.0795
vn 0.0000 -0.9661 -0.2582
vn -0.9514 -0.2974 -0.0798
vn -0.9514 -0.2976 -0.0795
vn 0.0000 0.9660 0.2587
vn 0.9514 -0.2975 -0.0798
vn -0.9514 -0.2975 -0.0798
vn 0.0000 0.9660 -0.2585
vn 0.0000 0.9660 -0.2584
vn 0.0000 0.9661 -0.2581
vn 0.0000 -0.9660 0.2586
vn 0.0000 0.9660 0.2585
vn -0.0000 0.9660 0.2584
vn 0.0000 0.9661 0.2581
vn 0.0000 -0.9660 -0.2586
usemtl lambert2.001
s 1
f 1/1/1 2/2/1 3/3/1
f 4/4/1 5/5/1 6/6/1
f 7/7/1 8/8/1 2/2/1
f 6/6/1 9/9/1 7/7/1
f 5/5/1 10/10/1 6/6/1
f 11/11/2 12/12/3 13/13/2
f 14/14/2 15/15/4 11/11/2
f 16/16/2 17/17/4 14/14/2
f 15/18/5 18/19/5 12/20/5
f 17/21/5 19/22/5 15/23/5
f 20/24/5 21/25/5 17/21/5
f 18/26/5 22/27/6 23/28/6
f 24/29/5 25/30/6 21/31/5
f 22/27/7 26/32/8 23/28/7
f 27/33/9 28/34/8 25/30/7
f 29/35/10 24/36/10 30/37/10
f 30/37/10 20/38/10 16/39/10
f 26/40/11 18/41/11 23/42/11
f 31/43/11 12/44/11 18/45/11
f 32/46/12 21/47/7 33/48/12
f 28/49/13 21/50/13 25/51/14
f 19/52/15 34/53/15 22/54/16
f 26/55/11 35/56/11 31/43/11
f 13/57/11 35/56/11 36/58/11
f 37/59/17 13/60/2 36/61/17
f 38/62/17 11/11/2 37/63/17
f 39/64/17 14/14/2 38/62/17
f 40/65/10 16/66/10 39/67/10
f 29/68/10 40/69/10 41/70/10
f 29/71/8 42/72/18 28/34/8
f 43/73/19 28/49/13 42/74/19
f 44/75/18 33/48/12 43/76/18
f 34/77/15 44/78/20 45/79/20
f 34/80/8 46/81/18 26/32/8
f 46/82/11 2/83/11 35/56/11
f 35/56/11 8/84/11 36/58/11
f 9/9/21 36/85/17 8/8/21
f 10/86/21 37/87/17 9/88/21
f 47/89/21 38/90/17 10/10/21
f 40/65/10 47/91/10 5/92/10
f 41/70/10 5/93/10 48/94/10
f 41/95/18 4/96/22 42/72/18
f 6/97/23 42/98/19 4/99/24
f 7/100/25 43/76/18 6/101/25
f 45/102/20 7/103/26 1/104/27
f 45/105/18 3/106/25 46/107/18
f 1/1/1 7/7/1 2/2/1
f 4/4/1 48/108/1 5/5/1
f 7/7/1 9/9/1 8/8/1
f 6/6/1 10/10/1 9/9/1
f 5/5/1 47/89/1 10/10/1
f 11/11/2 15/15/4 12/12/3
f 14/14/2 17/17/4 15/15/4
f 16/16/2 20/109/28 17/17/4
f 15/18/5 19/110/5 18/19/5
f 17/21/5 21/25/5 19/22/5
f 20/111/5 24/112/5 21/113/5
f 18/26/5 19/114/5 22/27/6
f 24/29/5 27/33/6 25/30/6
f 22/27/7 34/80/8 26/32/8
f 27/33/9 29/71/8 28/34/8
f 29/68/10 27/115/10 24/116/10
f 30/37/10 24/36/10 20/38/10
f 26/55/11 31/43/11 18/45/11
f 31/43/11 13/57/11 12/44/11
f 32/46/12 19/117/9 21/47/7
f 28/49/13 33/118/29 21/50/13
f 19/52/15 32/119/30 34/53/15
f 26/55/11 46/82/11 35/56/11
f 13/57/11 31/43/11 35/56/11
f 37/63/17 11/11/2 13/13/2
f 38/62/17 14/14/2 11/11/2
f 39/120/17 16/121/2 14/122/2
f 40/123/10 30/124/10 16/125/10
f 29/68/10 30/126/10 40/69/10
f 29/71/8 41/95/18 42/72/18
f 43/73/19 33/118/29 28/49/13
f 44/75/18 32/46/12 33/48/12
f 34/77/15 32/127/30 44/78/20
f 34/128/8 45/105/18 46/107/18
f 46/129/11 3/3/11 2/2/11
f 35/56/11 2/83/11 8/84/11
f 9/88/21 37/87/17 36/130/17
f 10/131/21 38/132/17 37/59/17
f 47/89/21 39/133/17 38/90/17
f 40/65/10 39/67/10 47/91/10
f 41/70/10 40/69/10 5/93/10
f 41/95/18 48/134/22 4/96/22
f 6/135/23 43/73/19 42/74/19
f 7/100/25 44/75/18 43/76/18
f 45/79/20 44/78/20 7/136/26
f 45/105/18 1/137/22 3/106/25
f 49/138/31 50/139/31 51/140/31
f 52/141/31 53/142/31 54/143/31
f 55/144/31 56/145/31 50/139/31
f 54/143/31 57/146/31 55/144/31
f 53/142/31 58/147/31 54/143/31
f 59/148/32 60/149/33 61/150/32
f 62/151/32 63/152/34 59/148/32
f 64/153/32 65/154/34 62/151/32
f 63/155/35 66/156/35 60/157/35
f 65/158/35 67/159/35 63/155/35
f 68/160/35 69/161/35 65/158/35
f 66/162/35 70/163/36 71/164/36
f 72/165/35 73/166/36 69/167/35
f 70/163/37 74/168/38 71/164/37
f 75/169/39 76/170/38 73/166/37
f 77/171/11 72/172/11 78/173/11
f 78/173/11 68/174/11 64/175/11
f 74/176/10 66/177/10 71/178/10
f 79/179/10 60/180/10 66/177/10
f 80/181/40 69/182/37 81/183/40
f 76/184/41 69/185/41 73/186/42
f 67/187/43 82/188/43 70/189/44
f 74/176/10 83/190/10 79/179/10
f 61/191/10 83/190/10 84/192/10
f 85/193/45 61/194/32 84/195/45
f 86/196/45 59/197/32 85/198/45
f 87/199/45 62/200/32 86/196/45
f 88/201/11 64/175/11 87/202/11
f 77/171/11 88/201/11 89/203/11
f 77/204/38 90/205/46 76/170/38
f 91/206/47 76/184/41 90/207/47
f 92/208/46 81/183/40 91/209/46
f 82/188/43 92/210/48 93/211/48
f 82/212/38 94/213/46 74/168/38
f 94/214/10 50/139/10 83/190/10
f 83/190/10 56/145/10 84/192/10
f 57/146/49 84/195/45 56/145/49
f 58/147/49 85/193/45 57/146/49
f 95/215/49 86/216/45 58/147/49
f 88/217/11 95/218/11 53/219/11
f 89/220/11 53/142/11 96/221/11
f 89/222/46 52/223/50 90/224/46
f 54/225/51 90/226/47 52/227/52
f 55/228/53 91/209/46 54/229/53
f 93/211/48 55/230/54 49/231/55
f 93/232/46 51/233/53 94/213/46
f 49/138/31 55/144/31 50/139/31
f 52/141/31 96/221/31 53/142/31
f 55/144/31 57/146/31 56/145/31
f 54/143/31 58/147/31 57/146/31
f 53/142/31 95/215/31 58/147/31
f 59/148/32 63/152/34 60/149/33
f 62/151/32 65/154/34 63/152/34
f 64/153/32 68/234/56 65/154/34
f 63/155/35 67/159/35 66/156/35
f 65/158/35 69/161/35 67/159/35
f 68/235/35 72/236/35 69/237/35
f 66/162/35 67/238/35 70/163/36
f 72/165/35 75/169/36 73/166/36
f 70/163/37 82/212/38 74/168/38
f 75/169/39 77/204/38 76/170/38
f 77/239/11 75/240/11 72/241/11
f 78/173/11 72/172/11 68/174/11
f 74/176/10 79/179/10 66/177/10
f 79/179/10 61/191/10 60/180/10
f 80/181/40 67/242/39 69/182/37
f 76/184/41 81/243/57 69/185/41
f 67/187/43 80/244/58 82/188/43
f 74/176/10 94/214/10 83/190/10
f 61/191/10 79/179/10 83/190/10
f 85/198/45 59/197/32 61/245/32
f 86/196/45 62/200/32 59/197/32
f 87/199/45 64/246/32 62/200/32
f 88/201/11 78/173/11 64/175/11
f 77/171/11 78/173/11 88/201/11
f 77/204/38 89/247/46 90/205/46
f 91/206/47 81/243/57 76/184/41
f 92/208/46 80/181/40 81/183/40
f 82/188/43 80/244/58 92/210/48
f 82/212/38 93/232/46 94/213/46
f 94/214/10 51/140/10 50/139/10
f 83/190/10 50/139/10 56/145/10
f 57/146/49 85/193/45 84/195/45
f 58/147/49 86/216/45 85/193/45
f 95/215/49 87/248/45 86/216/45
f 88/201/11 87/202/11 95/249/11
f 89/250/11 88/217/11 53/219/11
f 89/222/46 96/251/50 52/223/50
f 54/252/51 91/206/47 90/207/47
f 55/228/53 92/208/46 91/209/46
f 93/211/48 92/210/48 55/230/54
f 93/232/46 49/253/50 51/233/53
usemtl lambert_banner_img
f 97/254/1 98/255/1 99/256/1
f 100/257/59 101/258/60 98/255/61
f 102/259/5 103/260/5 101/258/5
f 104/261/62 99/256/18 103/260/18
f 104/261/10 100/257/10 97/254/10
f 103/260/11 98/255/11 101/258/11
f 97/254/1 100/257/1 98/255/1
f 100/257/59 102/259/61 101/258/60
f 102/259/5 104/261/5 103/260/5
f 104/261/62 97/254/62 99/256/18
f 104/261/10 102/259/10 100/257/10
f 103/260/11 99/256/11 98/255/11
f 105/262/31 106/263/31 107/264/31
f 108/265/63 109/266/64 106/263/65
f 110/267/35 111/268/35 109/266/35
f 112/269/66 107/264/46 111/268/46
f 112/269/11 108/265/11 105/262/11
f 111/268/10 106/263/10 109/266/10
f 105/262/31 108/265/31 106/263/31
f 108/265/63 110/267/65 109/266/64
f 110/267/35 112/269/35 111/268/35
f 112/269/66 105/262/66 107/264/46
f 112/269/11 110/267/11 108/265/11
f 111/268/10 107/264/10 106/263/10
